<svg xmlns="http://www.w3.org/2000/svg" viewBox="0 0 212 210" display="inline-block" focusable="false" role="presentation"><g><path fill="#FFD500" d="M106,37.91A16.46,16.46,0,1,0,89.37,21.46,16.55,16.55,0,0,0,106,37.91Z"></path><path fill="#FFD500" d="M144.27,129.56c0,22.49-17.13,40.71-38.27,40.71s-38.27-18.22-38.27-40.71c0-14.89,16.79-42.65,28.12-59.7a12,12,0,0,1,20.29,0C127.48,86.91,144.27,114.67,144.27,129.56Z"></path><path fill="#00EC9F" d="M151.45,17.86a8.36,8.36,0,0,0-11.2,3.6,8.18,8.18,0,0,0,3.63,11.08A82.12,82.12,0,0,1,189.33,106a81.31,81.31,0,0,1-9.62,38.41,73.53,73.53,0,0,0-17.46-62.76A8.38,8.38,0,0,0,150.49,81a8.18,8.18,0,0,0-.74,11.63,57.35,57.35,0,0,1,14.58,38.18c0,30.84-24.55,56.11-55.33,57.65-1,0-2,.08-3,.08s-2,0-3-.08c-30.78-1.54-55.33-26.81-55.33-57.65A56.64,56.64,0,0,1,60.46,94.7a8.19,8.19,0,0,0-1.29-11.59,8.38,8.38,0,0,0-11.71,1.27A73.37,73.37,0,0,0,32.3,144.44,81.2,81.2,0,0,1,22.67,106,82.11,82.11,0,0,1,68.12,32.54a8.17,8.17,0,0,0,3.63-11.08,8.35,8.35,0,0,0-11.2-3.6A98.51,98.51,0,0,0,6,106c0,54.58,44.86,99,100,99s100-44.39,100-99A98.52,98.52,0,0,0,151.45,17.86Z"></path></g></svg>
